<svg xmlns="http://www.w3.org/2000/svg" viewBox="0 0 960 720" role="img" aria-labelledby="title desc">
  <title id="title">iNote desk scene</title>
  <desc id="desc">A composed desk scene with notebook, books, plate, cup and notes.</desc>
  <rect width="960" height="720" fill="#f3efe5"/>
  <path d="M0 510h960v210H0z" fill="#d9c8a7"/>
  <path d="M120 116h410c32 0 58 26 58 58v326c0 32-26 58-58 58H120z" fill="#fffaf0" stroke="#2f3130" stroke-width="8"/>
  <path d="M190 180h300M190 240h250M190 300h310M190 360h210M190 420h285" stroke="#8f7f63" stroke-width="14" stroke-linecap="round"/>
  <path d="M606 134h168c25 0 46 21 46 46v238c0 25-21 46-46 46H606z" fill="#445d76" stroke="#2f3130" stroke-width="8"/>
  <path d="M650 190h126M650 242h96M650 294h118" stroke="#d8e0e2" stroke-width="13" stroke-linecap="round"/>
  <circle cx="728" cy="528" r="92" fill="#f8f1df" stroke="#2f3130" stroke-width="8"/>
  <circle cx="728" cy="528" r="51" fill="#c74f2f"/>
  <path d="M688 522c25-31 56-31 82 0" fill="none" stroke="#f3c276" stroke-width="11" stroke-linecap="round"/>
  <path d="M114 574h312c19 0 34 15 34 34v40H114z" fill="#2f7d65" stroke="#2f3130" stroke-width="8"/>
  <path d="M184 634h210" stroke="#f5e6bf" stroke-width="12" stroke-linecap="round"/>
  <path d="M520 604c22-44 64-58 116-42" fill="none" stroke="#815c9a" stroke-width="20" stroke-linecap="round"/>
  <path d="M500 178c28-72 88-105 180-98" fill="none" stroke="#c6a353" stroke-width="18" stroke-linecap="round"/>
  <path d="M790 96c32 22 52 49 62 82" fill="none" stroke="#2f7d65" stroke-width="18" stroke-linecap="round"/>
</svg>
